<?xml version="1.0" encoding="utf-8"?>
<!-- Generator: Adobe Illustrator 16.0.0, SVG Export Plug-In . SVG Version: 6.00 Build 0)  -->
<!DOCTYPE svg PUBLIC "-//W3C//DTD SVG 1.1//EN" "http://www.w3.org/Graphics/SVG/1.1/DTD/svg11.dtd">
<svg version="1.1" id="_x3E__1_" xmlns="http://www.w3.org/2000/svg" xmlns:xlink="http://www.w3.org/1999/xlink" x="0px" y="0px"
	 width="100%" height="100%" viewBox="0 0 15 20" enable-background="new 0 0 15 20" xml:space="preserve">
<g id="_x3E_">
	<g>
		<path fill="#666" d="M15,9.994c0-0.404-0.162-0.769-0.421-1.028l0.001-0.001L6.33,0.394L6.326,0.397
			C6.079,0.151,5.744,0,5.375,0C4.616,0,4,0.64,4,1.429C4,1.862,4.186,2.25,4.479,2.512l7.204,7.485l-7.298,7.582l0,0.001
			C4.147,17.837,4,18.187,4,18.571C4,19.36,4.616,20,5.375,20c0.371,0,0.707-0.152,0.954-0.4h0l8.25-8.571h-0.001
			C14.838,10.769,15,10.403,15,10V9.994z"/>
	</g>
</g>
</svg>
