<?xml version="1.0" encoding="utf-8"?>
<!-- Generator: Adobe Illustrator 16.0.0, SVG Export Plug-In . SVG Version: 6.00 Build 0)  -->
<!DOCTYPE svg PUBLIC "-//W3C//DTD SVG 1.1//EN" "http://www.w3.org/Graphics/SVG/1.1/DTD/svg11.dtd">
<svg version="1.1" id="back_x5F_icon_1_" xmlns="http://www.w3.org/2000/svg" xmlns:xlink="http://www.w3.org/1999/xlink" x="0px"
	 y="0px" width="46px" height="46px" viewBox="0 0 46 46" enable-background="new 0 0 46 46" xml:space="preserve">
<g id="back_x5F_icon">
	<g>
		<path fill-rule="evenodd" clip-rule="evenodd" fill="#FFFFFF" d="M23,0C10.297,0,0,10.297,0,23s10.297,23,23,23s23-10.297,23-23
			S35.703,0,23,0z M23,44C11.402,44,2,34.598,2,23S11.402,2,23,2c11.598,0,21,9.402,21,21S34.598,44,23,44z M28,14.429
			C28,13.64,27.385,13,26.625,13c-0.369,0-0.704,0.151-0.951,0.397l-0.004-0.004l-8.25,8.571l0,0.001
			C17.162,22.226,17,22.59,17,22.994V23c0,0.403,0.162,0.769,0.421,1.028h0l8.25,8.571h0.001c0.247,0.248,0.583,0.4,0.954,0.4
			C27.385,33,28,32.36,28,31.571c0-0.385-0.146-0.734-0.386-0.991l0.001-0.001l-7.299-7.582l7.204-7.485
			C27.814,15.25,28,14.862,28,14.429z"/>
	</g>
</g>
</svg>
