<?xml version="1.0" encoding="utf-8"?>
<!-- Generator: Adobe Illustrator 16.0.0, SVG Export Plug-In . SVG Version: 6.00 Build 0)  -->
<!DOCTYPE svg PUBLIC "-//W3C//DTD SVG 1.1//EN" "http://www.w3.org/Graphics/SVG/1.1/DTD/svg11.dtd">
<svg version="1.1" id="形状_7_1_" xmlns="http://www.w3.org/2000/svg" xmlns:xlink="http://www.w3.org/1999/xlink" x="0px"
	 y="0px" width="100%" height="100%" viewBox="0 0 70 50" enable-background="new 0 0 70 50" xml:space="preserve">
<g id="形状_7">
	<g>
		<path fill="#FB7F4C" d="M66.111,0H3.889C1.742,0,0,1.866,0,4.167v5.556h70V4.167C70,1.866,68.258,0,66.111,0z M0,45.833
			C0,48.137,1.742,50,3.889,50h62.222C68.258,50,70,48.137,70,45.833V18.056H0V45.833z M51.852,38.807
			c0-1.488,1.144-2.695,2.555-2.695h5.264c1.409,0,2.553,1.207,2.553,2.695v0.166c0,1.489-1.144,2.694-2.553,2.694h-5.264
			c-1.411,0-2.555-1.205-2.555-2.694V38.807z M7.778,30.556h15.556v2.777H7.778V30.556z M7.778,38.889h25.926v2.778H7.778V38.889z"
			/>
	</g>
</g>
</svg>
