<?xml version="1.0" encoding="utf-8"?>
<!-- Generator: Adobe Illustrator 16.0.0, SVG Export Plug-In . SVG Version: 6.00 Build 0)  -->
<!DOCTYPE svg PUBLIC "-//W3C//DTD SVG 1.1//EN" "http://www.w3.org/Graphics/SVG/1.1/DTD/svg11.dtd">
<svg version="1.1" id="ebet_1_" xmlns="http://www.w3.org/2000/svg" xmlns:xlink="http://www.w3.org/1999/xlink" x="0px" y="0px"
	 width="130px" height="130px" viewBox="0 0 130 130" enable-background="new 0 0 130 130" xml:space="preserve">
<g id="ebet">
	<g>
		<path fill-rule="evenodd" clip-rule="evenodd" fill="#FB7F4C" d="M40.506,68.923c0,0-3.499,0.079-5.288,0
			c-1.088,1.423-9.331,3.795-8.398-2.214h14.308c0,0,3.532-9.981-4.666-11.383c-8.009-1.423-17.231,8.917-13.676,16.434
			C27.1,78.604,38.72,73.094,40.506,68.923z M31.486,60.069c5.937-2.235,6.221,2.529,6.221,2.529h-9.02
			C28.687,62.599,28.843,61.176,31.486,60.069z M59.79,64.813c0,0,1.866-0.501,2.799-1.897c0.793-1.238,3.125-6.477,1.866-7.272
			c-1.13-1.218-20.528-0.316-20.528-0.316s1.921,0.876,1.866,1.581c-0.125,1.581-4.728,17.043-7.776,18.023
			c0,0,16.207,0.187,17.908-0.058c1.914-0.273,3.125-1.101,5.108-7.848C61.423,65.286,59.79,64.813,59.79,64.813z M54.502,71.137
			h-9.02l1.555-4.428h9.02L54.502,71.137z M57.302,62.915h-8.708l1.555-3.795h8.708L57.302,62.915z M84.361,59.12l3.11-4.11H68.499
			c0,0-2.068,0.901-3.732,4.743c-2.043,4.605-5.91,15.178-5.91,15.178h21.151l3.109-3.794L65.389,70.82l1.866-4.111h11.197
			l2.8-3.794H68.499l1.556-3.795H84.361z M88.404,55.01l-3.109,4.11h7.153l-6.531,15.811h5.287l6.221-15.811h7.153L108,55.01H88.404
			z"/>
	</g>
</g>
</svg>
