<?xml version="1.0" encoding="utf-8"?>
<!-- Generator: Adobe Illustrator 16.0.0, SVG Export Plug-In . SVG Version: 6.00 Build 0)  -->
<!DOCTYPE svg PUBLIC "-//W3C//DTD SVG 1.1//EN" "http://www.w3.org/Graphics/SVG/1.1/DTD/svg11.dtd">
<svg version="1.1" id="椭圆_1_1_" xmlns="http://www.w3.org/2000/svg" xmlns:xlink="http://www.w3.org/1999/xlink" x="0px"
	 y="0px" width="100%" height="100%" viewBox="0 0 260 260" enable-background="new 0 0 260 260" xml:space="preserve">
<g id="椭圆_1">
	<g>
		<path fill-rule="evenodd" clip-rule="evenodd" fill="#FB7F4C" d="M130,70c-33.137,0-60,26.863-60,60s26.863,60,60,60
			c33.137,0,60-26.863,60-60S163.137,70,130,70z M130,186c-30.928,0-56-25.072-56-56s25.072-56,56-56s56,25.072,56,56
			S160.928,186,130,186z M162.292,97.548c0.108-5.309-4.954-10.063-10.363-9.979c-4.578,0.069-7.16,3.726-6.433,7.803
			c0.664,3.72,3.996,7.203,7.932,8.173C157.943,104.657,162.195,102.251,162.292,97.548z M127,125l-0.055-4.996L109,120v24h18v-6
			h-11l-0.04-3.948L125,134v-5h-9v-4H127z M105,120h-6l-7,10c0,0,0-6.655,0-10c-1.664,0-4.336,0.004-6,0.004
			c0,8.36,0,23.996,0,23.996h5l4-10l5,10h7l-7-14L105,120z M145,120v14l-7.069-13.996L130,120v24h6v-15l9,15h5l-0.086-23.996
			L145,120z M165,120c2.103,0-11-1.031-11,12c0,7.896,6.393,12,12,12c5.406,0,10-5.536,10-12C176,121.334,170,120,165,120z M165,139
			c-3.281,0-4-2.344-4-7s2.094-7,4-7c1.188,0,4,1.094,4,7S168.281,139,165,139z"/>
	</g>
</g>
</svg>
