<?xml version="1.0" encoding="utf-8"?>
<!-- Generator: Adobe Illustrator 16.0.0, SVG Export Plug-In . SVG Version: 6.00 Build 0)  --> 
<!DOCTYPE svg PUBLIC "-//W3C//DTD SVG 1.1//EN" "http://www.w3.org/Graphics/SVG/1.1/DTD/svg11.dtd"> 
<svg version="1.1" xmlns="http://www.w3.org/2000/svg" xmlns:xlink="http://www.w3.org/1999/xlink"
	 x="0px" y="0px" width="100%" height="100%" viewBox="0 0 160 160" enable-background="new 0 0 160 160" xml:space="preserve">
<path fill="#cc4f55" d="M96.348,88.643c6.151-4.783,10.115-12.187,10.115-20.518C106.463,53.697,94.615,42,80,42
			S53.537,53.697,53.537,68.125c0,8.331,3.964,15.734,10.116,20.518C52.622,94.193,44.859,105.156,44,118h4.819
			c0.929-12.027,8.848-22.106,19.749-26.341C72.032,93.303,75.9,94.25,80,94.25c4.102,0,7.968-0.947,11.432-2.591
			c10.901,4.234,18.82,14.313,19.75,26.341H116C115.144,105.156,107.378,94.193,96.348,88.643z M80,89.5
			c-11.959,0-21.652-9.569-21.652-21.375c0-11.807,9.693-21.375,21.652-21.375s21.652,9.568,21.652,21.375
			C101.652,79.931,91.959,89.5,80,89.5z"/>
</svg> 