<?xml version="1.0" encoding="utf-8"?>
<!-- Generator: Adobe Illustrator 16.0.0, SVG Export Plug-In . SVG Version: 6.00 Build 0)  -->
<!DOCTYPE svg PUBLIC "-//W3C//DTD SVG 1.1//EN" "http://www.w3.org/Graphics/SVG/1.1/DTD/svg11.dtd">
<svg version="1.1" id="money_1_" xmlns="http://www.w3.org/2000/svg" xmlns:xlink="http://www.w3.org/1999/xlink" x="0px" y="0px"
	 width="100%" height="100%" viewBox="0 0 70 50" enable-background="new 0 0 70 50" xml:space="preserve">
<g id="money">
	<g>
		<path fill="#FB7F4C" d="M31.919,25.843c-0.156,0.229-0.254,0.49-0.282,0.767c-0.027,0.278-0.012,0.587,0.093,0.849
			c0.1,0.249,0.31,0.433,0.526,0.581c0.243,0.165,0.51,0.295,0.782,0.404c0.228,0.093,0.484,0.181,0.761,0.267v-3.95
			C33.101,24.91,32.337,25.229,31.919,25.843z M38.48,32.819c-0.182-0.2-0.411-0.349-0.648-0.474
			c-0.517-0.271-1.082-0.435-1.643-0.582v4.364c0.91-0.104,1.956-0.436,2.434-1.289c0.229-0.407,0.273-0.908,0.182-1.362
			C38.754,33.231,38.649,33.006,38.48,32.819z M37.721,11.025c3.696-3.118,6.166-10.143,4.646-10.449
			c-2.02-0.408-6.405,1.382-8.525,1.697C30.836,2.639,27.562-1,25.724,1.028c-1.494,1.648,1.071,7.645,5.085,10.257
			C18.833,17.196,2,46.868,31.367,49.021C72,52,51.653,16.785,37.721,11.025z M41.211,34.426c-0.125,1.157-0.736,2.203-1.648,2.913
			c-0.963,0.75-2.172,1.099-3.373,1.196v1.278c0,0.342-0.148,0.673-0.403,0.899c-0.351,0.311-0.865,0.388-1.291,0.191
			c-0.42-0.194-0.696-0.627-0.696-1.091v-1.396c-0.206-0.04-0.411-0.087-0.612-0.143c-1.123-0.31-2.164-0.913-2.924-1.806
			c-0.379-0.445-0.688-0.95-0.901-1.495c-0.056-0.143-0.105-0.288-0.149-0.435c-0.04-0.133-0.08-0.268-0.094-0.406
			c-0.023-0.232,0.022-0.47,0.13-0.677c0.222-0.425,0.688-0.683,1.166-0.64c0.469,0.042,0.88,0.369,1.028,0.818
			c0.046,0.138,0.077,0.28,0.128,0.417c0.05,0.136,0.111,0.268,0.184,0.394c0.142,0.248,0.32,0.477,0.524,0.675
			c0.422,0.408,0.96,0.674,1.521,0.832v-4.749c-1.097-0.285-2.229-0.653-3.134-1.36c-0.44-0.344-0.813-0.771-1.058-1.276
			c-0.258-0.533-0.365-1.128-0.37-1.718c-0.004-0.6,0.109-1.193,0.358-1.739c0.233-0.512,0.569-0.971,0.981-1.352
			c0.88-0.813,2.05-1.268,3.223-1.434v-1.327c0-0.342,0.148-0.673,0.404-0.899c0.35-0.312,0.865-0.388,1.291-0.191
			c0.42,0.194,0.695,0.627,0.695,1.091v1.319c0.156,0.02,0.313,0.044,0.468,0.072c1.151,0.209,2.278,0.687,3.12,1.521
			c0.398,0.395,0.726,0.865,0.955,1.378c0.064,0.144,0.121,0.29,0.17,0.439c0.045,0.14,0.09,0.283,0.111,0.428
			c0.035,0.232,0,0.472-0.1,0.685c-0.202,0.435-0.656,0.712-1.135,0.69c-0.469-0.02-0.895-0.327-1.063-0.768
			c-0.051-0.132-0.076-0.271-0.127-0.401c-0.051-0.132-0.118-0.259-0.195-0.378c-0.149-0.231-0.344-0.431-0.564-0.595
			c-0.479-0.354-1.061-0.54-1.641-0.644v4.544c0.69,0.166,1.381,0.348,2.042,0.609c0.999,0.396,1.946,1.002,2.491,1.959
			c-0.085-0.149-0.167-0.295,0.003,0.005c0.167,0.294,0.087,0.153,0.003,0.006C41.162,32.636,41.305,33.554,41.211,34.426z"/>
	</g>
</g>
</svg>
