<?xml version="1.0" encoding="utf-8"?>
<!-- Generator: Adobe Illustrator 16.0.0, SVG Export Plug-In . SVG Version: 6.00 Build 0)  -->
<!DOCTYPE svg PUBLIC "-//W3C//DTD SVG 1.1//EN" "http://www.w3.org/Graphics/SVG/1.1/DTD/svg11.dtd">
<svg version="1.1" id="service_x5F_icon.svg_拷贝_1_"
	 xmlns="http://www.w3.org/2000/svg" xmlns:xlink="http://www.w3.org/1999/xlink" x="0px" y="0px" width="100%" height="100%"
	 viewBox="0 0 104 76" enable-background="new 0 0 104 76" xml:space="preserve">
<g id="service_x5F_icon.svg_拷贝">
	<g>
		<path fill-rule="evenodd" clip-rule="evenodd" fill="#A0A0A0" d="M83.689,26.146L80,26c-0.031-0.125,0.025-1.743,0-2
			C78.563,9.759,67.213,0,53.291,0h-2.582C36.89,0,25.462,10.968,23.888,25.057C23.847,25.418,23.631,26,23,26h-3
			c-1.893,0-6,2.239-6,12.813v5.549c0,7.843,4.418,9.651,6.311,9.651h9.175C31.379,54.013,34,51.99,34,50V30c0-1.989-4.107-4-6-4
			c0,0-0.11-1.191,0-2C29.514,12.864,40.033,4,51.025,4h1.949C63.893,4,74.466,12.964,76,24c0.049,0.355,0.027,2,0,2
			c-4.29,0-6.029,2.008-6,4v20c0,1.99,2.621,4.013,4.514,4.013h1.723c0.475,0,0.807-0.213,0.764-0.013c-1.403,6.662-3.926,14-11,14
			h-6c-0.535,0-1.898-1.805-2-2c-0.849-1.63-1.185-2-3.077-2h-5.846c-2.762,0-4.342,3.841-4.342,6.744c0,2.902,2.239,5.256,5,5.256
			h4.828c1.919,0,2.599-0.334,3.437-2c0.073-0.146,1.434-2,2-2h6c4.805,0,10.193-1.76,13.539-13.717
			C79.896,57.009,79.764,55.224,80,54c0.032-0.168,0.474,0.013,0.973,0.013h2.717c1.893,0,6.311-1.809,6.311-9.65v-5.549
			C90,28.391,85.582,26.146,83.689,26.146z M28,30c1.624,0,2-0.218,2,1s0,19,0,19s-8.539,0-10,0s-2-2.862-2-10
			c0-10.891,2.269-10,3-10H28z M54.923,72.103h-5.846c-0.959,0-1.462-0.917-1.462-1.948c0-0.91,0.183-1.949,1.462-1.949h5.846
			c0.67,0,1.462,0.793,1.462,1.949C56.385,71.157,55.623,72.103,54.923,72.103z M84,50c-1.137,0-10,0-10,0s0-16.457,0-18s2-2,2-2
			s5.147,0,6,0s4,0.22,4,10C86,47.915,85.137,50,84,50z"/>
	</g>
</g>
</svg>
