<?xml version="1.0" encoding="utf-8"?>
<!-- Generator: Adobe Illustrator 16.0.0, SVG Export Plug-In . SVG Version: 6.00 Build 0)  -->
<!DOCTYPE svg PUBLIC "-//W3C//DTD SVG 1.1//EN" "http://www.w3.org/Graphics/SVG/1.1/DTD/svg11.dtd">
<svg version="1.1" id="user_x5F_icon.svg_拷贝_1_"
	 xmlns="http://www.w3.org/2000/svg" xmlns:xlink="http://www.w3.org/1999/xlink" x="0px" y="0px" width="100%" height="100%"
	 viewBox="0 0 104 76" enable-background="new 0 0 104 76" xml:space="preserve">
<g id="user_x5F_icon.svg_拷贝">
	<g>
		<path fill="#A0A0A0" d="M68.074,46.643c6.237-4.783,10.257-12.187,10.257-20.518C78.331,11.696,66.318,0,51.5,0
			C36.682,0,24.669,11.696,24.669,26.125c0,8.331,4.02,15.734,10.257,20.518C23.742,52.193,15.871,63.156,15,76h4.886
			c0.941-12.027,8.971-22.106,20.023-26.341c3.512,1.644,7.435,2.591,11.591,2.591c4.158,0,8.078-0.947,11.591-2.591
			C74.143,53.894,82.173,63.973,83.114,76H88C87.132,63.156,79.258,52.193,68.074,46.643z M51.5,47.5
			c-12.125,0-21.953-9.569-21.953-21.375c0-11.807,9.828-21.375,21.953-21.375s21.953,9.568,21.953,21.375
			C73.453,37.931,63.625,47.5,51.5,47.5z"/>
	</g>
</g>
</svg>
