<?xml version="1.0" encoding="utf-8"?>
<!-- Generator: Adobe Illustrator 16.0.0, SVG Export Plug-In . SVG Version: 6.00 Build 0)  -->
<!DOCTYPE svg PUBLIC "-//W3C//DTD SVG 1.1//EN" "http://www.w3.org/Graphics/SVG/1.1/DTD/svg11.dtd">
<svg version="1.1" id="notice_x5F_icon.svg_拷贝_1_"
	 xmlns="http://www.w3.org/2000/svg" xmlns:xlink="http://www.w3.org/1999/xlink" x="0px" y="0px" width="100%" height="100%"
	 viewBox="0 0 148 120" enable-background="new 0 0 148 120" xml:space="preserve">
<g id="notice_x5F_icon.svg_拷贝">
	<g>
		<path fill-rule="evenodd" clip-rule="evenodd" fill="#FFFFFF" d="M69.811,13.367c-2.013,0-3.835,0.726-5.281,1.889l-0.024-0.029
			L36,36H8c-4.616,0.013-8,3.462-8,8v32c0,4.545,3.374,8,8,8h28l28.884,18.316l0.013-0.018c1.383,0.99,3.071,1.591,4.914,1.591
			C74.438,103.89,80,100.545,80,96V20C80,15.455,74.438,13.367,69.811,13.367z M72,96h-5L38,76H8V44h30l29-22h5V96z M103.05,21.392
			l-7.95,7.81c6.877,8.447,11.014,19.142,11.014,30.799S101.977,82.353,95.1,90.799l7.95,7.81
			c8.88-10.465,14.233-23.919,14.233-38.608S111.93,31.856,103.05,21.392z M124.825,0l-7.953,7.813
			C129.268,21.788,136.83,40.009,136.83,60c0,19.992-7.563,38.212-19.958,52.187l7.953,7.813C139.235,104.024,148,83.023,148,60
			C148,36.978,139.235,15.976,124.825,0z"/>
	</g>
</g>
</svg>
