<?xml version="1.0" encoding="utf-8"?>
<!-- Generator: Adobe Illustrator 16.0.0, SVG Export Plug-In . SVG Version: 6.00 Build 0)  -->
<!DOCTYPE svg PUBLIC "-//W3C//DTD SVG 1.1//EN" "http://www.w3.org/Graphics/SVG/1.1/DTD/svg11.dtd">
<svg version="1.1" id="money_1_" xmlns="http://www.w3.org/2000/svg" xmlns:xlink="http://www.w3.org/1999/xlink" x="0px" y="0px"
	 width="100%" height="100%" viewBox="0 0 70 50" enable-background="new 0 0 70 50" xml:space="preserve">
<g id="money">
	<g>
		<path fill="#FB7F4C" d="M59.498,28.444H50.16V17.585c0-1.337-1.096-2.431-2.436-2.431H34.409v4.862h9.662
			c0.69,0,1.218,0.526,1.218,1.215v7.172H24.625c-0.893,0-1.746,0.527-2.151,1.297L16.872,40.6V21.231
			c0-0.688,0.528-1.215,1.218-1.215h4.791v-4.862h-8.444c-1.34,0-2.436,1.094-2.436,2.431v29.984C12,48.906,13.096,50,14.436,50
			h34.425c0.894,0,1.746-0.526,2.152-1.297l9.58-18.477C61,29.416,60.432,28.444,59.498,28.444z M22.312,12.398
			c0-0.04,3.532-3.565,3.532-3.565V22.65c0,0.404,0.122,0.851,0.325,1.215c0.812,1.459,2.964,1.742,4.182,0.608
			c0.528-0.446,0.812-1.135,0.812-1.823V8.833l3.532,3.565c0.975,0.933,2.598,1.054,3.572,0.081c1.016-1.013,0.975-2.553-0.04-3.565
			l-7.917-7.901C29.294,0,27.792,0,26.777,1.013l-7.917,7.901c-1.015,1.013-1.056,2.593-0.081,3.565
			C19.713,13.452,21.378,13.331,22.312,12.398z"/>
	</g>
</g>
</svg>
