<?xml version="1.0" encoding="utf-8"?>
<!-- Generator: Adobe Illustrator 16.0.0, SVG Export Plug-In . SVG Version: 6.00 Build 0)  -->
<!DOCTYPE svg PUBLIC "-//W3C//DTD SVG 1.1//EN" "http://www.w3.org/Graphics/SVG/1.1/DTD/svg11.dtd">
<svg version="1.1" id="形状_6_1_" xmlns="http://www.w3.org/2000/svg" xmlns:xlink="http://www.w3.org/1999/xlink" x="0px"
	 y="0px" width="100%" height="100%" viewBox="0 0 70 50" enable-background="new 0 0 70 50" xml:space="preserve">
<g id="形状_6">
	<g>
		<path fill="#FB7F4C" d="M35,9.375c1.257,0,2.275-1.049,2.275-2.344V2.344C37.275,1.05,36.257,0,35,0s-2.276,1.05-2.276,2.344
			v4.688C32.724,8.326,33.743,9.375,35,9.375z M46.379,9.375c1.258,0,2.276-1.049,2.276-2.344V2.344C48.655,1.05,47.637,0,46.379,0
			c-1.256,0-2.275,1.05-2.275,2.344v4.688C44.104,8.326,45.123,9.375,46.379,9.375z M23.621,9.375c1.257,0,2.276-1.049,2.276-2.344
			V2.344C25.896,1.05,24.877,0,23.621,0s-2.276,1.05-2.276,2.344v4.688C21.345,8.326,22.364,9.375,23.621,9.375z M54.725,4.688
			h-3.793v2.344c0,2.589-2.039,4.688-4.553,4.688s-4.551-2.099-4.551-4.688V4.688h-2.276v2.344c0,2.589-2.038,4.688-4.552,4.688
			s-4.552-2.099-4.552-4.688V4.688h-2.276v2.344c0,2.589-2.038,4.688-4.552,4.688c-2.514,0-4.552-2.099-4.552-4.688V4.688h-3.793
			C14.019,4.688,13,5.737,13,7.031v40.625C13,48.951,14.019,50,15.276,50h39.449C55.98,50,57,48.951,57,47.656V7.031
			C57,5.737,55.98,4.688,54.725,4.688z M49.035,42.188h-28.07c-1.047,0-1.896-0.874-1.896-1.953s0.849-1.953,1.896-1.953h28.07
			c1.047,0,1.896,0.874,1.896,1.953S50.082,42.188,49.035,42.188z M48.655,32.813H21.345c-1.257,0-2.276-1.05-2.276-2.344
			s1.019-2.344,2.276-2.344h27.311c1.257,0,2.276,1.05,2.276,2.344S49.912,32.813,48.655,32.813z M48.655,22.656H21.345
			c-1.257,0-2.276-1.05-2.276-2.344s1.019-2.344,2.276-2.344h27.311c1.257,0,2.276,1.05,2.276,2.344S49.912,22.656,48.655,22.656z"
			/>
	</g>
</g>
</svg>
