<?xml version="1.0" encoding="utf-8"?>
<!-- Generator: Adobe Illustrator 16.0.0, SVG Export Plug-In . SVG Version: 6.00 Build 0)  -->
<!DOCTYPE svg PUBLIC "-//W3C//DTD SVG 1.1//EN" "http://www.w3.org/Graphics/SVG/1.1/DTD/svg11.dtd">
<svg version="1.1" id="形状_8_1_" xmlns="http://www.w3.org/2000/svg" xmlns:xlink="http://www.w3.org/1999/xlink" x="0px"
	 y="0px" width="100%" height="100%" viewBox="0 0 70 50" enable-background="new 0 0 70 50" xml:space="preserve">
<g id="形状_8">
	<g>
		<path fill="#FB7F4C" d="M51.643,40.761c-2.538,0.17-4.434,2.412-4.264,4.925C47.548,48.098,49.545,50,51.947,50h0.339
			c1.219-0.102,2.335-0.646,3.147-1.597c0.813-0.917,1.186-2.105,1.117-3.362C56.382,42.527,54.182,40.591,51.643,40.761z
			 M23.179,40.761c-2.539,0-4.604,2.072-4.604,4.619c0,2.548,2.065,4.62,4.604,4.62c2.538,0,4.603-2.072,4.603-4.619
			C27.782,42.833,25.717,40.761,23.179,40.761z M61.561,11.107c-0.373-0.577-1.016-0.917-1.693-0.917h-28.16
			c-1.117,0-2.031,0.917-2.031,2.038s0.914,2.038,2.031,2.038h25.046L49.24,31.59H26.631L18.338,1.494
			C18.102,0.611,17.29,0,16.375,0H9.031C7.914,0,7,0.917,7,2.038s0.914,2.038,2.031,2.038h5.821l8.292,30.095
			c0.237,0.884,1.049,1.495,1.963,1.495h25.486c0.813,0,1.523-0.476,1.861-1.223l9.273-21.4C62,12.398,61.932,11.685,61.561,11.107z
			"/>
	</g>
</g>
</svg>
