<?xml version="1.0" encoding="utf-8"?>
<!-- Generator: Adobe Illustrator 16.0.0, SVG Export Plug-In . SVG Version: 6.00 Build 0)  -->
<!DOCTYPE svg PUBLIC "-//W3C//DTD SVG 1.1//EN" "http://www.w3.org/Graphics/SVG/1.1/DTD/svg11.dtd">
<svg version="1.1" id="椭圆_1_1_" xmlns="http://www.w3.org/2000/svg" xmlns:xlink="http://www.w3.org/1999/xlink" x="0px"
	 y="0px" width="100%" height="100%" viewBox="0 0 260 260" enable-background="new 0 0 260 260" xml:space="preserve">
<g id="椭圆_1">
	<g>
		<path fill-rule="evenodd" clip-rule="evenodd" fill="#FB7F4C" d="M130,70c-33.137,0-60,26.863-60,60s26.863,60,60,60
			c33.137,0,60-26.863,60-60S163.137,70,130,70z M147.621,76.847c-1.039,5.357-4.786,17.197-17.621,17.197
			c-12.684,0-16.446-11.717-17.516-17.232C117.996,74.997,123.88,74,130,74C136.159,74,142.079,75.01,147.621,76.847z
			 M108.375,78.336C109.466,84.547,113.697,98,129.917,98c16.227,0,20.553-13.466,21.687-19.673
			c19.613,8.214,33.558,27.268,34.346,49.673h-49.243c-0.86-2.891-3.535-5-6.706-5s-5.845,2.109-6.706,5H74.051
			C74.838,105.603,88.773,86.555,108.375,78.336z M130,186c-6.208,0-12.172-1.025-17.752-2.89C113.085,178.127,116.564,165,130,165
			c13.262,0,16.771,12.952,17.646,18.146C142.097,184.987,136.169,186,130,186z M151.743,181.611
			c-0.885-5.879-4.781-20.611-21.659-20.611c-16.886,0-20.886,14.744-21.811,20.618c-19.547-8.241-33.436-27.26-34.222-49.618
			h49.243c0.861,2.891,3.535,5,6.706,5s5.846-2.109,6.706-5h49.243C185.163,154.352,171.282,173.365,151.743,181.611z"/>
	</g>
</g>
</svg>
