<?xml version="1.0" encoding="utf-8"?>
<!-- Generator: Adobe Illustrator 16.0.0, SVG Export Plug-In . SVG Version: 6.00 Build 0)  -->
<!DOCTYPE svg PUBLIC "-//W3C//DTD SVG 1.1//EN" "http://www.w3.org/Graphics/SVG/1.1/DTD/svg11.dtd">
<svg version="1.1" id="zz_1_" xmlns="http://www.w3.org/2000/svg" xmlns:xlink="http://www.w3.org/1999/xlink" x="0px" y="0px"
	 width="100%" height="100%" viewBox="0 0 70 50" enable-background="new 0 0 70 50" xml:space="preserve">
<g id="zz">
	<g>
		<path fill="#FB7F4C" d="M56.652,23.43c-1.449,0-2.623,1.172-2.623,2.617c0,10.321-8.412,18.718-18.753,18.718
			c-6.254,0-12.032-3.093-15.505-8.187l3.32-1.824c0.596-0.328,0.937-0.982,0.861-1.658c-0.075-0.676-0.551-1.239-1.205-1.429
			l-8.895-2.572c-0.154-0.045-0.311-0.066-0.468-0.066c-0.282,0-0.561,0.07-0.813,0.208c-0.391,0.216-0.681,0.576-0.805,1.005
			l-2.578,8.878C9,39.771,9.223,40.475,9.755,40.899c0.532,0.424,1.268,0.487,1.864,0.159l3.544-1.947
			C19.572,45.873,27.105,50,35.276,50c13.233,0,23.999-10.745,23.999-23.953C59.275,24.602,58.101,23.43,56.652,23.43z
			 M60.245,9.101c-0.532-0.424-1.267-0.487-1.864-0.159l-3.544,1.947C50.428,4.126,42.895,0,34.724,0
			C21.491,0,10.725,10.745,10.725,23.953c0,1.445,1.174,2.617,2.623,2.617c1.449,0,2.623-1.172,2.623-2.617
			c0-10.321,8.413-18.718,18.753-18.718c6.255,0,12.031,3.093,15.505,8.187l-3.32,1.824c-0.596,0.328-0.936,0.982-0.86,1.658
			s0.551,1.239,1.204,1.429l8.896,2.572c0.153,0.045,0.312,0.066,0.468,0.066c0.282,0,0.563-0.07,0.813-0.209
			c0.392-0.215,0.682-0.576,0.805-1.004l2.578-8.878C61,10.228,60.777,9.525,60.245,9.101z M32.761,32.024
			c-1.258-0.339-2.385-0.957-3.172-1.742c-0.341-0.34-0.793-0.526-1.275-0.526s-0.935,0.188-1.275,0.527l-0.138,0.137
			c-0.34,0.339-0.532,0.809-0.529,1.288s0.204,0.945,0.549,1.279c1.536,1.485,3.706,2.559,5.953,2.946l0.218,0.037v1.7
			c0,0.992,0.809,1.801,1.804,1.801h0.205c0.994,0,1.804-0.809,1.804-1.801v-1.739l0.213-0.041c3.73-0.708,5.957-3.035,5.957-6.222
			c0.032-4.332-3.184-5.914-5.987-6.808l-0.183-0.059v-5.836l0.318,0.069c0.826,0.181,1.564,0.456,2.135,0.798
			c0.281,0.168,0.602,0.257,0.927,0.257c0.627,0,1.198-0.316,1.53-0.847l0.092-0.146c0.254-0.406,0.336-0.905,0.225-1.371
			s-0.41-0.875-0.82-1.123c-1.149-0.694-2.635-1.207-4.184-1.443l-0.223-0.034v-1.285c0-0.993-0.81-1.801-1.804-1.801h-0.205
			c-0.995,0-1.804,0.808-1.804,1.801v1.381l-0.211,0.042c-3.446,0.694-5.504,2.853-5.504,5.773c0,3.127,1.811,5.26,5.537,6.521
			l0.178,0.06v6.496L32.761,32.024z M36.904,26.833l0.367,0.161c1.463,0.64,2.002,1.357,1.99,2.651c0,1.078-0.678,1.847-2.014,2.285
			l-0.344,0.113V26.833z M32.706,21.327c-1.092-0.582-1.517-1.225-1.517-2.29c0-0.81,0.521-1.412,1.55-1.791l0.353-0.13v4.416
			L32.706,21.327z"/>
	</g>
</g>
</svg>
