<?xml version="1.0" encoding="utf-8"?>
<!-- Generator: Adobe Illustrator 16.0.0, SVG Export Plug-In . SVG Version: 6.00 Build 0)  -->
<!DOCTYPE svg PUBLIC "-//W3C//DTD SVG 1.1//EN" "http://www.w3.org/Graphics/SVG/1.1/DTD/svg11.dtd">
<svg version="1.1" id="形状_2_1_" xmlns="http://www.w3.org/2000/svg" xmlns:xlink="http://www.w3.org/1999/xlink" x="0px"
	 y="0px" width="80px" height="80px" viewBox="0 0 80 80" enable-background="new 0 0 80 80" xml:space="preserve">
<g id="形状_2">
	<g>
		<path fill="#FFFFFF" d="M40,0C17.907,0,0,17.907,0,40s17.907,40,40,40c22.093,0,40-17.907,40-40S62.093,0,40,0z M68.184,63.421
			c-3.623-1.52-12.252-4.519-17.621-6.106c-0.455-0.144-0.527-0.163-0.527-2.061c0-1.565,0.645-3.142,1.273-4.476
			c0.68-1.452,1.488-3.891,1.777-6.078c0.811-0.94,1.918-2.796,2.623-6.331c0.623-3.118,0.332-4.251-0.08-5.318
			c-0.043-0.111-0.089-0.222-0.117-0.332c-0.157-0.729,0.055-4.528,0.588-7.475c0.368-2.021-0.094-6.321-2.873-9.876
			c-1.759-2.246-5.124-5.007-11.268-5.391L38.59,9.98c-6.039,0.381-9.401,3.142-11.159,5.388c-2.786,3.555-3.249,7.854-2.877,9.876
			c0.534,2.946,0.749,6.745,0.592,7.461c-0.032,0.124-0.078,0.234-0.124,0.346c-0.41,1.067-0.703,2.2-0.078,5.318
			c0.709,3.535,1.81,5.391,2.624,6.331c0.286,2.188,1.094,4.626,1.777,6.078c0.501,1.062,0.732,2.503,0.732,4.544
			c0,1.895-0.068,1.921-0.498,2.054c-5.527,1.632-14.31,4.809-17.585,6.24C6.602,57.23,3.333,48.994,3.333,40
			C3.333,19.782,19.782,3.333,40,3.333S76.666,19.782,76.666,40C76.666,48.896,73.477,57.061,68.184,63.421z"/>
	</g>
</g>
</svg>
