<?xml version="1.0" encoding="utf-8"?>
<!-- Generator: Adobe Illustrator 16.0.0, SVG Export Plug-In . SVG Version: 6.00 Build 0)  -->
<!DOCTYPE svg PUBLIC "-//W3C//DTD SVG 1.1//EN" "http://www.w3.org/Graphics/SVG/1.1/DTD/svg11.dtd">
<svg version="1.1" id="椭圆_1_1_" xmlns="http://www.w3.org/2000/svg" xmlns:xlink="http://www.w3.org/1999/xlink" x="0px"
	 y="0px" width="100%" height="100%" viewBox="0 0 260 260" enable-background="new 0 0 260 260" xml:space="preserve">
<g id="椭圆_1">
	<g>
		<path fill-rule="evenodd" clip-rule="evenodd" fill="#FB7F4C" d="M145.641,93.083c3.928-4.532,5.303-9.776,3.068-11.713
			c-2.234-1.936-7.229,0.169-11.158,4.7c-3.928,4.532-5.302,9.776-3.068,11.713C136.717,99.719,141.712,97.614,145.641,93.083z
			 M163.77,95.821c-2.459-1.946-7.102,0.012-10.432,4.136c-0.909,1.126-1.643,2.327-2.196,3.525l-8.463,3.175
			c-0.216-0.783-0.632-1.438-1.263-1.9c-2.4-1.758-6.932,0.011-10.182,3.734c-0.886,1.016-1.602,2.099-2.142,3.18l-7.357,2.606
			c-0.149-0.548-0.4-1.037-0.774-1.436c-1.982-2.111-6.458-0.899-10.022,2.479c-3.458,3.28-5.111,7.715-3.699,10.136
			c0.447,0.766,1.156,1.249,2.032,1.467l-3.062,7.675c-0.757,0.436-1.507,0.956-2.223,1.56c-3.568,3.006-5.342,7.192-3.978,9.572
			c0.467,0.813,1.248,1.327,2.228,1.548l-2.705,7.208c-0.541,0.251-1.083,0.544-1.617,0.89c-3.293,2.136-5.325,5.488-4.581,7.674
			c0.797,2.344,4.479,2.567,8.285,0.273c0.616-0.371,1.182-0.782,1.703-1.215l14.462-2.773c0.11,0.54,0.324,1.036,0.66,1.455
			c1.605,2,5.419,1.819,8.734-0.604c1.238-0.905,2.226-1.991,2.92-3.117l12.13-2.763c0.162,0.697,0.473,1.356,0.958,1.935
			c2.626,3.128,8.037,1.948,10.569-2.479c2.01-3.515,0.692-6.885-2.021-7.915c-2.235-0.849-5.226-0.019-7.259,1.969
			c-0.973,0.95-1.695,2.14-2.078,3.375l-11.18,2.547c0.034-0.985-0.235-1.888-0.857-2.599c-1.937-2.211-6.313-1.449-9.543,1.437
			c-0.869,0.776-1.562,1.632-2.077,2.503l-12.129,2.326c0.226-0.939,0.154-1.811-0.276-2.507c-0.5-0.809-1.408-1.239-2.53-1.333
			l2.526-6.733c1.248-0.457,2.559-1.185,3.834-2.188c4.304-3.388,6.083-8.19,3.987-10.457c-0.716-0.773-1.784-1.127-3.029-1.115
			l2.75-6.892c1.119-0.527,2.276-1.282,3.399-2.279c1.782-1.582,3.097-3.412,3.86-5.167l6.827-2.418
			c0.06,0.946,0.343,1.775,0.883,2.399c1.98,2.285,6.615,1.131,10.333-2.852c1.042-1.116,1.865-2.303,2.472-3.479l8.4-3.152
			c0.125,0.792,0.397,1.492,0.841,2.045c0.735,0.918,1.832,1.328,3.109,1.276l-2.247,9.76c-0.886,0.477-1.756,1.092-2.564,1.853
			c-1.357,1.277-2.342,2.755-2.907,4.226l-8.862,2.468c-0.01-1.782-0.894-3.128-2.437-3.646c-2.386-0.8-6.034,0.513-8.8,3.03
			c-3.094,2.816-4.944,7.009-3.485,9.565c1.938,3.396,8.101,2.058,12.298-3.162c0.375-0.467,0.695-0.929,0.979-1.386l9.902-2.758
			c0.201,0.824,0.603,1.56,1.22,2.146c2.475,2.35,7.311,1.276,10.675-2.246c3.223-3.374,3.907-7.781,1.642-9.978
			c-0.794-0.77-1.865-1.175-3.064-1.25l2.428-10.553c0.92-0.671,1.835-1.502,2.7-2.505
			C165.419,103.555,166.417,97.916,163.77,95.821z M179.982,115.431c-2.383-1.056-5.996,0.031-8.799,2.729
			c-3.449,3.319-5.32,8.707-2.975,11.807c2.966,3.917,9.683,1.306,13.026-4.739C183.735,120.709,182.748,116.656,179.982,115.431z
			 M78.972,144.286c-2.686,2.575-3.763,5.289-3.028,6.757c0.774,1.548,3.637,1.857,7.356,0.159
			c4.912-2.241,10.642-8.161,8.066-10.895C88.963,137.759,82.178,141.212,78.972,144.286z M122.993,170.504
			c-1.684-0.567-4.153-0.09-6.125,1.105c-2.333,1.414-4.189,3.975-3.544,6.055c1.004,3.238,6.506,3.043,10.138-0.913
			C126.084,173.893,125.249,171.264,122.993,170.504z"/>
	</g>
</g>
</svg>
