<?xml version="1.0" encoding="utf-8"?>
<!-- Generator: Adobe Illustrator 16.0.0, SVG Export Plug-In . SVG Version: 6.00 Build 0)  -->
<!DOCTYPE svg PUBLIC "-//W3C//DTD SVG 1.1//EN" "http://www.w3.org/Graphics/SVG/1.1/DTD/svg11.dtd">
<svg version="1.1" id="logo_1_" xmlns="http://www.w3.org/2000/svg" xmlns:xlink="http://www.w3.org/1999/xlink" x="0px" y="0px"
	 width="96px" height="96px" viewBox="0 0 96 96" enable-background="new 0 0 96 96" xml:space="preserve">
<g id="logo">
	<g>
		<path fill="#FFFFFF" d="M58.178,59.221c1.516,2.621,5.477,2.946,5.477,2.946s9.839,0,14.758,0c0.15-0.517,0.304-1.034,0.456-1.551
			c0.759-1.82,1.082-3.665,1.674-5.892c2.082-7.828-0.129-16.92-2.892-22.169c-0.686-1.304-2.891-4.651-2.891-4.651
			s-3.437,3.864-4.867,5.892c-3.498,4.949-6.854,9.718-9.738,15.349C59.002,51.396,56.355,56.068,58.178,59.221z M25.773,15.036
			c0,0,13.413-8.268,31.493-6.046c7.201,0.885,14.557,3.465,20.08,6.512c6.863,3.783,11.105,8.062,11.105,8.062
			S84.771,15.05,77.193,9.61c-3.178-2.28-6.389-4.187-9.584-5.426c-9.098-3.531-18.016-3.155-24.95-0.775
			C32.044,7.052,25.773,15.036,25.773,15.036z M47.984,14.262c-16.608,0-25.102,11.782-25.102,11.782s30.921-0.155,32.558-0.155
			c1.635,0,3.004,0.039,3.649,2.171c0.312,1.025-0.456,2.79-0.456,2.79L25.469,72.709c0,0,8.383,9.303,22.363,9.303
			c16.082,0,25.254-11.628,25.254-11.628H45.702c0,0-8.1,0.832-9.128-0.931c-0.813-1.393,0.457-3.256,0.457-3.256l33.774-42.789
			C70.805,23.408,62.081,14.262,47.984,14.262z M8.734,50.693c-0.014-0.053-0.033-0.121-0.048-0.178
			C8.688,50.676,8.704,50.742,8.734,50.693z M37.639,36.741c-1.917-2.998-5.933-2.791-5.933-2.791H17.862
			c0,0-1.669,4.877-2.129,6.512c-2.016,7.154-0.384,16.216,1.978,21.705c0.814,1.894,3.499,6.046,3.499,6.046
			s1.139-1.439,1.673-2.17c1.369-1.873,2.882-3.635,4.26-5.582c3.528-4.984,7.325-9.995,9.889-15.968
			C37.842,42.603,39.017,38.896,37.639,36.741z M94.232,39.066c-1.959-7.519-6.946-15.003-12.627-19.534
			c-7.826-6.241-16.734-7.751-16.734-7.751s14.17,7.568,22.061,27.131c1.473,3.653,1.879,7.377,2.889,11.627
			c1.99,8.363-0.606,20.773-0.606,20.773s3.552-4.998,5.324-12.713C95.805,53.089,96.48,47.691,94.232,39.066z M89.365,56.12
			c-0.244-6.177-1.979-10.853-1.979-10.853s-1.056,9.204-2.281,13.023C80.62,72.258,73.99,81.057,63.35,88.678
			c-3.145,2.254-6.34,3.905-10.192,5.581c-1.324,0.576-4.563,1.705-4.563,1.705s4.397,0.036,5.781,0
			c5.273-0.137,10.152-1.929,13.846-3.876C76.747,87.589,82.34,81.216,85.41,74.88C89.447,66.546,89.455,58.419,89.365,56.12z
			 M8.686,50.516C8.66,48.98,9.859,38.714,12.081,33.95c2.396-5.136,3.711-8.742,7.606-13.953c4.24-5.671,9.426-10.457,15.67-14.418
			c2.928-1.856,8.038-4.355,12.323-5.271C42.81-0.96,30.978,1.804,26.381,4.649c-8.763,5.425-14.957,11.973-18.104,23.1
			C5.102,38.98,7.835,47.349,8.686,50.516z M65.328,86.197c1.822-1.369,5.02-4.807,5.02-4.807s-8.593,4.303-17.494,5.58
			c-9.131,1.313-18.6-0.408-20.387-0.93c-6.125-1.784-11.753-3.861-16.583-6.977c-3.456-2.229-8.215-6.668-8.215-6.668
			s1.845,4.813,6.085,9.459c3.199,3.504,7.991,6.582,13.083,9.302c7.765,4.146,19.625,3.854,25.103,2.016
			C57.035,91.461,61.428,89.123,65.328,86.197z M12.233,74.568c3.611,3.172,7.645,5.732,11.106,7.287
			c4.356,1.955,7.759,2.48,7.759,2.48s-4.985-2.848-10.193-8.527c-4.855-5.295-9.09-10.838-12.627-21.549
			C3.005,38.292,7.061,24.959,7.061,24.959s-1.886,2.17-3.347,5.581c-0.93,2.171-1.653,4.493-2.282,6.821
			C0.12,42.215,0.182,49.359,1.28,54.57C2.708,61.348,6.523,69.555,12.233,74.568z"/>
	</g>
</g>
</svg>
