<?xml version="1.0" encoding="utf-8"?>
<!-- Generator: Adobe Illustrator 16.0.0, SVG Export Plug-In . SVG Version: 6.00 Build 0)  -->
<!DOCTYPE svg PUBLIC "-//W3C//DTD SVG 1.1//EN" "http://www.w3.org/Graphics/SVG/1.1/DTD/svg11.dtd">
<svg version="1.1" xmlns="http://www.w3.org/2000/svg" xmlns:xlink="http://www.w3.org/1999/xlink"
	 x="0px" y="0px" width="100%" height="100%" viewBox="0 0 160 160" enable-background="new 0 0 160 160" xml:space="preserve">
<g id="join_x5F_icon.svg">
	<g>
		<path fill="#27a1a6" d="M106,66L94,54L64,84l12,12L106,66z M110,114H46V50h48l4-4H46c-2.053,0-4,2.287-4,4.339v63.828
			c0,2.051,1.947,3.833,4,3.833h64c2.053,0,4-1.948,4-4V62l-4,4V114z M58.106,101.706l13.95-3.474L61.59,87.794L58.106,101.706z
			 M116.555,48.659l-5.232-5.219c-1.445-1.44-3.788-1.44-5.232,0l-7.85,7.828l10.465,10.437l7.85-7.828
			C118,52.437,118,50.101,116.555,48.659z"/>
	</g>
</g>
</svg>
