<?xml version="1.0" encoding="utf-8"?>
<!-- Generator: Adobe Illustrator 16.0.0, SVG Export Plug-In . SVG Version: 6.00 Build 0)  -->
<!DOCTYPE svg PUBLIC "-//W3C//DTD SVG 1.1//EN" "http://www.w3.org/Graphics/SVG/1.1/DTD/svg11.dtd">
<svg version="1.1" id="menu_x5F_ui.svg_拷贝_1_" xmlns="http://www.w3.org/2000/svg" xmlns:xlink="http://www.w3.org/1999/xlink"
	 x="0px" y="0px" width="100%" height="100%" viewBox="0 0 240 240" enable-background="new 0 0 240 240" xml:space="preserve">
<g id="menu_x5F_ui.svg_拷贝">
	<g>
		<path fill="#FFFFFF" d="M56,124h128v-8H56V124z M56,88h128v-8H56V88z M120,0C53.726,0,0,53.726,0,120c0,66.273,53.726,120,120,120
			c66.273,0,120-53.727,120-120C240,53.726,186.273,0,120,0z M120,232C58.144,232,8,181.855,8,120C8,58.145,58.144,8,120,8
			c61.855,0,112,50.145,112,112C232,181.855,181.855,232,120,232z M56,160h128v-8H56V160z"/>
	</g>
</g>
</svg>
