<?xml version="1.0" encoding="utf-8"?>
<!-- Generator: Adobe Illustrator 16.0.0, SVG Export Plug-In . SVG Version: 6.00 Build 0)  -->
<!DOCTYPE svg PUBLIC "-//W3C//DTD SVG 1.1//EN" "http://www.w3.org/Graphics/SVG/1.1/DTD/svg11.dtd">
<svg version="1.1" id="service_x5F_icon_拷贝_1_" xmlns="http://www.w3.org/2000/svg" xmlns:xlink="http://www.w3.org/1999/xlink"
	 x="0px" y="0px" width="100%" height="100%" viewBox="0 0 160 160" enable-background="new 0 0 160 160" xml:space="preserve">
<g id="service_x5F_icon_拷贝">
	<g>
		<path fill-rule="evenodd" clip-rule="evenodd" fill="#32a467" d="M112.523,68.146h-2.814c-0.77,0-0.796-0.516-0.822-0.772
			C107.411,53.132,95.613,42,81.324,42h-2.648c-14.183,0-25.912,10.968-27.528,25.057c-0.042,0.361-0.063,1.089-0.711,1.089h-2.959
			c-1.943,0-6.477,2.094-6.477,12.667v5.55c0,7.842,4.534,9.65,6.477,9.65h9.417C58.836,96.013,61,93.989,61,92V72
			c0-1.989-4.164-3.854-6.106-3.854c0,0-0.443-0.039-0.33-0.849C56.117,56.162,67.718,46,79,46h2
			c11.205,0,22.831,10.034,24.406,21.07c0.051,0.355,0.239,1.075-0.3,1.075C103.164,68.146,99,70.011,99,72v20
			c0,1.989,2.164,4.013,4.106,4.013h1.769c0.486,0,0.403,0.397,0.359,0.599C103.795,103.272,100.26,110,93,110h-4
			c-0.549,0-1.896-1.805-2-2c-0.871-1.63-2.058-2-4-2h-6c-2.834,0-6,3.097-6,6s3.166,6,6,6h6c1.969,0,3.14-0.334,4-2
			c0.075-0.146,1.419-2,2-2h4c4.932,0,11.83-1.76,15.264-13.717c0.366-1.274,0.663-2.545,0.905-3.769
			c0.033-0.168,0.054-0.502,0.567-0.502h2.787c1.942,0,6.477-1.809,6.477-9.65v-5.549C119,70.391,114.465,68.146,112.523,68.146z
			 M56,72l1,1v19c0,0-8.031,0-10,0s-2-2.875-2-12s4.354-8,7-8C53.398,72,56,72,56,72z M83,114h-6c0,0-2,0.094-2-2c0-1.969,2-2,2-2h6
			c0,0,2,0.198,2,2C85,113.917,83,114,83,114z M115,83c0,5.625-0.25,9-3,9s-9,0-9,0V73l1-1c0,0,2.035,0,4,0
			C115.373,72,115,77.375,115,83z"/>
	</g>
</g>
</svg>
