<?xml version="1.0" encoding="utf-8"?>
<!-- Generator: Adobe Illustrator 16.0.0, SVG Export Plug-In . SVG Version: 6.00 Build 0)  -->
<!DOCTYPE svg PUBLIC "-//W3C//DTD SVG 1.1//EN" "http://www.w3.org/Graphics/SVG/1.1/DTD/svg11.dtd">
<svg version="1.1" id="gift_x5F_icon_拷贝_1_" xmlns="http://www.w3.org/2000/svg" xmlns:xlink="http://www.w3.org/1999/xlink"
	 x="0px" y="0px" width="100%" height="100%" viewBox="0 0 160 160" enable-background="new 0 0 160 160" xml:space="preserve">
<g id="gift_x5F_icon_拷贝">
	<g>
		<path fill="#3784bf" d="M114,58.904h-8c0.098-0.313,0-2.293,0-2.003c0-15.901-5.182-14.022-7.719-14.022
			c-4.453,0-10.063,4.26-12.281,6.01c-0.857,0.677-4.213,3.52-6,6.01c-1.788-2.49-5.114-5.521-5.972-6.199
			c-2.218-1.749-7.856-5.82-12.309-5.82c-1.729,0-3.179,0.59-4.307,1.752c-2.856,2.944-3.515,9.225-3.413,12.271
			c0-0.229,0.013,0.381,0,0c0,0.29-0.097,1.69,0,2.003h-8c-1.925,0-4,2.088-4,4.007v14.021c0,1.919,2.075,4.007,4,4.007h2v34.054
			c0,1.371,2.625,4.007,4,4.007h56c1.375,0,4-2.636,4-4.007V80.939h2c1.925,0,4-2.088,4-4.007V62.911
			C118,60.992,115.925,58.904,114,58.904z M88.146,50.79c3.987-3.086,7.494-3.904,9.854-3.904c3.51,0,4,6.99,4,10.016v2.003
			c-0.086,0.075-20,0-20,0s-0.027-1.577-0.143-1.668C82.152,56.41,84.378,53.707,88.146,50.79z M62,46.886
			c2.359,0,5.866,0.818,9.854,3.904c3.768,2.917,5.85,7.288,6.146,8.114c-0.116,0.092-2,0-2,0s-17.914,0.075-18,0
			c0-0.277-0.16-2.31-0.16-2.714C57.84,47.06,62.451,46.886,62,46.886z M72,114.993H52V80.905h20V114.993z M72,76.896H46V62.86h26
			V76.896z M84,114.993l-8-0.003V80.905h8V114.993z M84,76.896h-8V62.86h8V76.896z M108,114.99l-20,0.003V80.905h20V114.99z
			 M114,76.896H88V62.86h26V76.896z"/>
	</g>
</g>
</svg>
