<?xml version="1.0" encoding="utf-8"?>
<!-- Generator: Adobe Illustrator 16.0.0, SVG Export Plug-In . SVG Version: 6.00 Build 0)  -->
<!DOCTYPE svg PUBLIC "-//W3C//DTD SVG 1.1//EN" "http://www.w3.org/Graphics/SVG/1.1/DTD/svg11.dtd">
<svg version="1.1" id="gift_x5F_icon.svg_拷贝_1_"
	 xmlns="http://www.w3.org/2000/svg" xmlns:xlink="http://www.w3.org/1999/xlink" x="0px" y="0px" width="100%" height="100%"
	 viewBox="0 0 104 76" enable-background="new 0 0 104 76" xml:space="preserve">
<g id="gift_x5F_icon.svg_拷贝">
	<g>
		<path fill="#A0A0A0" d="M85,17h-9c0,0,3.752-16-7-16c-4.315,0-9.468,4.884-11.617,6.591c-0.832,0.661-4.084,3.435-5.816,5.863
			c-1.733-2.429-4.958-5.387-5.789-6.048C43.628,5.699,38.315,1,34,1c-1.676,0-3.212,1.324-4.327,2.437C23.731,9.366,27,17,27,17h-8
			c-1.866,0-4,1.034-4,4v15c0,2.574,2.134,3,4,3h2v34c0,3.094,2.094,3,3.426,3h54.281C80.039,76,83,74.985,83,72V39l1.934-0.188
			C86.799,38.812,89,36.872,89,35V21C89,19.128,86.865,17,85,17z M53.367,15.736c0.286-0.807,2.443-3.444,6.096-6.29
			c3.865-3.012,7.265-3.81,9.551-3.81c3.402,0,3.877,6.82,3.877,9.772C72.891,15.804,73,17,73,17H53
			C53,17,53.479,15.825,53.367,15.736z M34.119,5.637c2.287,0,5.687,0.798,9.552,3.81C47.323,12.293,49,17,49,17H31
			c0,0-0.913-1.89-0.913-2.284C30.087,5.807,34.556,5.637,34.119,5.637z M44,72H25V39h19V72z M44,35H19V21h25V35z M56,72h-8V39h8V72
			z M56,35h-8V21h8V35z M79,72H60V39h19V72z M85,35H60V21h25V35z"/>
	</g>
</g>
</svg>
