<?xml version="1.0" encoding="iso-8859-1"?>
<!-- Generator: Adobe Illustrator 17.0.0, SVG Export Plug-In . SVG Version: 6.00 Build 0)  -->
<!DOCTYPE svg PUBLIC "-//W3C//DTD SVG 1.1//EN" "http://www.w3.org/Graphics/SVG/1.1/DTD/svg11.dtd">
<svg version="1.1" id="&#x56FE;&#x5C42;_1" xmlns="http://www.w3.org/2000/svg" xmlns:xlink="http://www.w3.org/1999/xlink" x="0px"
	 y="0px" width="260px" height="260px" viewBox="0 0 260 260" style="enable-background:new 0 0 260 260;" xml:space="preserve">
<path style="fill-rule:evenodd;clip-rule:evenodd;fill:#EE7B4D;" d="M190.769,109.748v26.022c3.293,0,5.973,2.668,5.973,5.947
	s-2.679,5.947-5.973,5.947h-5.973v3.965c0,3.279-2.679,5.947-5.973,5.947h-1.991v23.789c0,5.465-4.466,9.912-9.954,9.912H87.244
	c-5.489,0-9.954-4.447-9.954-9.912V74.316c0-5.465,4.466-9.912,9.954-9.912h79.635c5.489,0,9.954,4.447,9.954,9.912v51.542h1.991
	c3.293,0,5.973,2.668,5.973,5.947v3.965h1.991v-26.022c-3.431-0.882-5.973-3.99-5.973-7.678c0-4.372,3.572-7.93,7.963-7.93
	c4.391,0,7.963,3.557,7.963,7.93C196.742,105.758,194.2,108.866,190.769,109.748z M172.852,159.559h-9.954
	c-1.099,0-1.991-0.888-1.991-1.983c0-1.095,0.891-1.982,1.991-1.982h9.954V74.316c0-3.279-2.679-5.947-5.973-5.947H87.244
	c-3.293,0-5.972,2.668-5.972,5.947v81.277h73.662c1.099,0,1.991,0.888,1.991,1.982c0,1.095-0.891,1.983-1.991,1.983H81.272v21.806
	c0,3.279,2.679,5.947,5.972,5.947h79.635c3.293,0,5.973-2.668,5.973-5.947V159.559z M180.815,131.805
	c0-1.093-0.893-1.983-1.991-1.983h-1.991v23.789h1.991c1.098,0,1.991-0.89,1.991-1.983V131.805z M184.797,139.735v3.965h5.973
	c1.098,0,1.991-0.889,1.991-1.982c0-1.093-0.893-1.983-1.991-1.983H184.797z M188.779,98.105c-2.195,0-3.982,1.779-3.982,3.965
	c0,2.186,1.786,3.965,3.982,3.965s3.982-1.779,3.982-3.965C192.76,99.884,190.974,98.105,188.779,98.105z M164.888,179.382h-13.936
	c-2.195,0-3.982-1.779-3.982-3.965v-3.965c0-2.186,1.786-3.964,3.982-3.964h13.936c2.195,0,3.982,1.779,3.982,3.964v3.965
	C168.87,177.603,167.084,179.382,164.888,179.382z M164.888,171.453h-13.936v3.965h13.936V171.453z M148.961,139.735
	c0-4.372,3.572-7.929,7.963-7.929c1.099,0,1.991,0.888,1.991,1.982c0,1.095-0.891,1.982-1.991,1.982
	c-2.195,0-3.982,1.779-3.982,3.965c0,2.186,1.786,3.965,3.982,3.965c2.195,0,3.982-1.779,3.982-3.965
	c0-1.095,0.891-1.982,1.991-1.982c1.099,0,1.991,0.888,1.991,1.982c0,4.372-3.572,7.93-7.963,7.93
	C152.534,147.664,148.961,144.107,148.961,139.735z M160.906,123.876h-67.69c-2.195,0-3.982-1.779-3.982-3.965v-33.7
	c0-2.186,1.786-3.965,3.982-3.965h67.69c2.195,0,3.982,1.779,3.982,3.965v33.7C164.888,122.097,163.102,123.876,160.906,123.876z
	 M113.126,86.211H93.217v33.7h19.909V86.211z M137.016,86.211h-19.909v33.7h19.909V86.211z M160.906,86.211h-19.909v33.7h19.909
	V86.211z M144.979,94.14h11.945c0.022,0,0.043,0.003,0.064,0.003c0.04,0.001,0.08,0.002,0.12,0.006
	c0.032,0.003,0.063,0.008,0.094,0.012c0.032,0.005,0.065,0.009,0.097,0.015c0.034,0.007,0.068,0.015,0.101,0.023
	c0.029,0.007,0.058,0.014,0.087,0.022c0.033,0.01,0.066,0.021,0.098,0.033c0.029,0.01,0.058,0.02,0.086,0.031
	c0.03,0.012,0.059,0.026,0.088,0.039c0.03,0.014,0.06,0.028,0.09,0.043c0.026,0.014,0.052,0.029,0.077,0.044
	c0.031,0.018,0.061,0.036,0.091,0.055c0.024,0.016,0.047,0.033,0.07,0.05c0.029,0.021,0.058,0.041,0.086,0.064
	c0.024,0.02,0.047,0.04,0.071,0.061c0.025,0.022,0.05,0.043,0.073,0.067c0.027,0.027,0.052,0.055,0.078,0.083
	c0.015,0.017,0.032,0.032,0.047,0.05c0.003,0.003,0.005,0.007,0.008,0.01c0.028,0.033,0.053,0.068,0.079,0.103
	c0.013,0.018,0.028,0.035,0.04,0.053c0.025,0.036,0.046,0.073,0.068,0.111c0.011,0.019,0.024,0.037,0.034,0.056
	c0.019,0.034,0.035,0.07,0.052,0.106c0.011,0.023,0.023,0.045,0.033,0.068c0.012,0.028,0.021,0.057,0.032,0.085
	c0.012,0.032,0.025,0.064,0.035,0.096c0.007,0.022,0.012,0.045,0.018,0.068c0.011,0.04,0.023,0.08,0.031,0.12
	c0.004,0.021,0.006,0.042,0.01,0.063c0.007,0.043,0.015,0.087,0.02,0.13c0.003,0.022,0.003,0.044,0.004,0.066
	c0.003,0.043,0.006,0.087,0.006,0.13c0,0.004,0.001,0.009,0.001,0.014c0,0.022-0.003,0.044-0.003,0.067
	c-0.001,0.038-0.002,0.076-0.006,0.114c-0.003,0.033-0.008,0.064-0.012,0.096c-0.004,0.031-0.008,0.063-0.014,0.094
	c-0.007,0.034-0.015,0.069-0.023,0.102c-0.007,0.028-0.014,0.057-0.022,0.085c-0.01,0.034-0.021,0.066-0.033,0.099
	c-0.01,0.028-0.02,0.056-0.031,0.084c-0.012,0.03-0.026,0.06-0.04,0.089c-0.014,0.029-0.027,0.059-0.042,0.087
	c-0.014,0.027-0.029,0.053-0.045,0.079c-0.017,0.03-0.035,0.06-0.054,0.089c-0.016,0.025-0.034,0.048-0.051,0.072
	c-0.02,0.028-0.041,0.057-0.063,0.084c-0.02,0.025-0.041,0.048-0.062,0.072c-0.021,0.024-0.043,0.049-0.065,0.072
	c-0.026,0.027-0.054,0.052-0.082,0.078c-0.017,0.015-0.031,0.031-0.049,0.046c-0.23,0.197-5.274,4.625-5.274,12.369
	c0,1.095-0.891,1.982-1.991,1.982c-1.099,0-1.991-0.888-1.991-1.982c0-5.254,1.9-9.278,3.674-11.894h-5.665
	c0,1.095-0.891,1.983-1.991,1.983c-1.099,0-1.991-0.888-1.991-1.983v-1.982C142.989,95.028,143.88,94.14,144.979,94.14z
	 M121.089,94.14h11.945c0.022,0,0.043,0.003,0.064,0.004c0.04,0.001,0.08,0.002,0.119,0.006c0.032,0.003,0.063,0.008,0.095,0.012
	c0.032,0.004,0.064,0.008,0.097,0.015c0.035,0.006,0.068,0.015,0.102,0.023c0.029,0.007,0.058,0.014,0.086,0.022
	c0.034,0.01,0.066,0.021,0.099,0.033c0.029,0.01,0.057,0.02,0.085,0.031c0.03,0.012,0.059,0.026,0.089,0.04
	c0.03,0.014,0.06,0.027,0.089,0.043c0.027,0.014,0.053,0.029,0.078,0.044c0.03,0.018,0.06,0.035,0.09,0.054
	c0.024,0.016,0.048,0.033,0.072,0.05c0.029,0.021,0.057,0.041,0.085,0.064c0.025,0.02,0.048,0.041,0.071,0.062
	c0.024,0.022,0.049,0.043,0.073,0.066c0.027,0.027,0.053,0.055,0.079,0.084c0.015,0.017,0.032,0.032,0.047,0.05
	c0.003,0.003,0.005,0.007,0.008,0.01c0.028,0.033,0.053,0.068,0.079,0.103c0.013,0.018,0.028,0.035,0.04,0.053
	c0.025,0.036,0.046,0.073,0.068,0.111c0.011,0.019,0.024,0.037,0.034,0.056c0.019,0.034,0.035,0.07,0.052,0.106
	c0.011,0.023,0.023,0.045,0.033,0.068c0.012,0.028,0.021,0.057,0.032,0.085c0.012,0.032,0.025,0.064,0.035,0.096
	c0.007,0.022,0.011,0.045,0.018,0.068c0.011,0.04,0.023,0.08,0.031,0.12c0.004,0.021,0.006,0.042,0.01,0.063
	c0.007,0.043,0.015,0.087,0.02,0.13c0.003,0.022,0.003,0.044,0.004,0.066c0.003,0.043,0.006,0.087,0.006,0.13
	c0,0.004,0.001,0.009,0.001,0.014c0,0.022-0.003,0.044-0.004,0.067c-0.001,0.038-0.002,0.076-0.006,0.114
	c-0.003,0.033-0.008,0.064-0.012,0.096c-0.004,0.031-0.008,0.063-0.014,0.094c-0.006,0.034-0.015,0.069-0.023,0.102
	c-0.007,0.028-0.014,0.057-0.022,0.085c-0.01,0.034-0.021,0.066-0.033,0.099c-0.01,0.028-0.02,0.056-0.031,0.084
	c-0.012,0.03-0.026,0.06-0.04,0.089c-0.014,0.029-0.027,0.059-0.042,0.087c-0.014,0.027-0.029,0.053-0.045,0.079
	c-0.017,0.03-0.035,0.06-0.054,0.089c-0.016,0.025-0.034,0.048-0.051,0.072c-0.02,0.028-0.041,0.057-0.063,0.084
	c-0.02,0.025-0.041,0.048-0.062,0.072c-0.021,0.024-0.043,0.049-0.066,0.072c-0.026,0.027-0.054,0.052-0.082,0.078
	c-0.017,0.015-0.031,0.031-0.049,0.046c-0.23,0.197-5.274,4.625-5.274,12.369c0,1.095-0.891,1.982-1.991,1.982
	c-1.099,0-1.991-0.888-1.991-1.982c0-5.254,1.9-9.278,3.674-11.894h-5.664c0,1.095-0.891,1.983-1.991,1.983
	c-1.1,0-1.991-0.888-1.991-1.983v-1.982C119.098,95.028,119.989,94.14,121.089,94.14z M97.199,94.14h11.945
	c0.022,0,0.043,0.003,0.064,0.004c0.04,0.001,0.08,0.002,0.119,0.006c0.032,0.003,0.063,0.008,0.094,0.012
	c0.032,0.004,0.065,0.008,0.097,0.014c0.034,0.007,0.068,0.015,0.102,0.023c0.029,0.007,0.058,0.014,0.087,0.022
	c0.033,0.009,0.066,0.021,0.099,0.033c0.029,0.01,0.057,0.02,0.086,0.031c0.03,0.012,0.06,0.026,0.089,0.039
	c0.03,0.014,0.06,0.027,0.089,0.043c0.026,0.014,0.052,0.029,0.078,0.044c0.03,0.018,0.061,0.035,0.09,0.054
	c0.024,0.016,0.047,0.033,0.071,0.05c0.029,0.021,0.057,0.041,0.085,0.064c0.025,0.02,0.048,0.041,0.071,0.062
	c0.024,0.022,0.049,0.043,0.073,0.066c0.027,0.027,0.053,0.055,0.079,0.084c0.015,0.017,0.032,0.032,0.047,0.05
	c0.003,0.003,0.005,0.007,0.008,0.01c0.028,0.033,0.053,0.068,0.079,0.103c0.013,0.018,0.028,0.035,0.04,0.053
	c0.025,0.036,0.046,0.073,0.068,0.111c0.011,0.019,0.024,0.037,0.034,0.056c0.019,0.034,0.035,0.07,0.052,0.106
	c0.011,0.023,0.023,0.045,0.033,0.068c0.012,0.028,0.021,0.057,0.032,0.085c0.012,0.032,0.025,0.064,0.035,0.096
	c0.007,0.022,0.011,0.045,0.018,0.068c0.011,0.04,0.023,0.08,0.031,0.12c0.004,0.021,0.006,0.042,0.01,0.063
	c0.007,0.043,0.015,0.087,0.02,0.13c0.003,0.022,0.003,0.044,0.004,0.066c0.003,0.043,0.006,0.087,0.006,0.13
	c0,0.004,0.001,0.009,0.001,0.014c0,0.022-0.003,0.044-0.003,0.067c-0.001,0.038-0.002,0.076-0.006,0.114
	c-0.003,0.033-0.008,0.064-0.012,0.096c-0.004,0.031-0.008,0.063-0.014,0.094c-0.006,0.034-0.015,0.069-0.023,0.102
	c-0.007,0.028-0.014,0.057-0.022,0.085c-0.01,0.034-0.021,0.066-0.033,0.099c-0.01,0.028-0.02,0.056-0.031,0.084
	c-0.013,0.03-0.026,0.06-0.04,0.089c-0.014,0.029-0.027,0.059-0.042,0.087c-0.014,0.027-0.029,0.053-0.045,0.079
	c-0.017,0.03-0.035,0.06-0.054,0.089c-0.016,0.025-0.034,0.048-0.051,0.072c-0.02,0.028-0.041,0.057-0.063,0.084
	c-0.02,0.025-0.041,0.048-0.062,0.072c-0.021,0.024-0.043,0.049-0.065,0.072c-0.026,0.027-0.055,0.052-0.082,0.078
	c-0.017,0.015-0.031,0.031-0.049,0.046c-0.23,0.197-5.274,4.625-5.274,12.369c0,1.095-0.891,1.982-1.991,1.982
	c-1.099,0-1.991-0.888-1.991-1.982c0-5.254,1.9-9.278,3.674-11.894h-5.665c0,1.095-0.891,1.983-1.991,1.983
	c-1.099,0-1.991-0.888-1.991-1.983v-1.982C95.208,95.028,96.099,94.14,97.199,94.14z M97.199,131.805
	c1.099,0,1.991,0.888,1.991,1.982c0,1.095-0.891,1.982-1.991,1.982c-2.195,0-3.982,1.779-3.982,3.965
	c0,2.186,1.786,3.965,3.982,3.965c2.195,0,3.982-1.779,3.982-3.965c0-1.095,0.891-1.982,1.991-1.982
	c1.099,0,1.991,0.888,1.991,1.982c0,4.372-3.572,7.93-7.963,7.93c-4.391,0-7.963-3.557-7.963-7.93
	C89.235,135.362,92.807,131.805,97.199,131.805z M117.107,131.805c1.099,0,1.991,0.888,1.991,1.982c0,1.095-0.891,1.982-1.991,1.982
	c-2.195,0-3.982,1.779-3.982,3.965c0,2.186,1.786,3.965,3.982,3.965c2.195,0,3.982-1.779,3.982-3.965
	c0-1.095,0.891-1.982,1.991-1.982c1.099,0,1.991,0.888,1.991,1.982c0,4.372-3.572,7.93-7.963,7.93c-4.391,0-7.963-3.557-7.963-7.93
	C109.144,135.362,112.716,131.805,117.107,131.805z M137.016,131.805c1.099,0,1.991,0.888,1.991,1.982
	c0,1.095-0.891,1.982-1.991,1.982c-2.195,0-3.982,1.779-3.982,3.965c0,2.186,1.786,3.965,3.982,3.965
	c2.195,0,3.982-1.779,3.982-3.965c0-1.095,0.891-1.982,1.991-1.982c1.099,0,1.991,0.888,1.991,1.982c0,4.372-3.572,7.93-7.963,7.93
	s-7.963-3.557-7.963-7.93C129.053,135.362,132.625,131.805,137.016,131.805z M135.025,179.382H93.217
	c-2.195,0-3.982-1.779-3.982-3.965v-3.965c0-2.186,1.786-3.964,3.982-3.964h41.808c2.195,0,3.982,1.779,3.982,3.964v3.965
	C139.007,177.603,137.221,179.382,135.025,179.382z M135.025,171.453H93.217v3.965h41.808V171.453z"/>
</svg>
