<?xml version="1.0" encoding="utf-8"?>
<!-- Generator: Adobe Illustrator 16.0.0, SVG Export Plug-In . SVG Version: 6.00 Build 0)  -->
<!DOCTYPE svg PUBLIC "-//W3C//DTD SVG 1.1//EN" "http://www.w3.org/Graphics/SVG/1.1/DTD/svg11.dtd">
<svg version="1.1" id="user_1_" xmlns="http://www.w3.org/2000/svg" xmlns:xlink="http://www.w3.org/1999/xlink" x="0px" y="0px"
	 width="100%" height="100%" viewBox="0 0 240 240" enable-background="new 0 0 240 240" xml:space="preserve">
<g id="user">
	<g>
		<path fill-rule="evenodd" clip-rule="evenodd" fill="#FFFFFF" d="M120,0C53.726,0,0,53.726,0,120s53.726,120,120,120
			c66.273,0,120-53.726,120-120S186.273,0,120,0z M120,232C58.144,232,8,181.855,8,120S58.144,8,120,8c61.855,0,112,50.145,112,112
			S181.855,232,120,232z M147.246,134.556c10.252-8.056,16.859-20.523,16.859-34.556c0-24.3-19.747-44-44.105-44
			s-44.106,19.7-44.106,44c0,14.032,6.608,26.5,16.86,34.556C74.371,143.904,61.432,162.368,60,184h8.031
			c1.548-20.256,14.748-37.232,32.915-44.364C106.72,142.404,113.167,144,120,144c6.836,0,13.279-1.596,19.054-4.364
			c18.167,7.132,31.367,24.108,32.915,44.364H180C178.572,162.368,165.629,143.904,147.246,134.556z M120,136
			c-19.932,0-36.086-16.116-36.086-36S100.068,64,120,64s36.086,16.116,36.086,36S139.932,136,120,136z"/>
	</g>
</g>
</svg>
